<svg width="345" height="49" viewBox="0 0 345 49" fill="none" xmlns="http://www.w3.org/2000/svg">
<path d="M101.443 16.3035C101.539 16.3035 101.588 16.3997 101.588 16.5916C101.588 16.7836 101.539 16.8797 101.443 16.8797C100.643 16.8797 99.9557 17.1521 99.3797 17.6961C98.8037 18.2401 98.2589 19.2 97.7469 20.576L91.8914 36.1756C90.7394 39.2476 89.6349 41.6636 88.5789 43.4236C87.523 45.2155 86.4194 46.4796 85.2674 47.2156C84.1474 47.9516 82.8993 48.3201 81.5233 48.3201C80.8514 48.3201 80.2757 48.1595 79.7957 47.8397C79.3158 47.5517 79.0751 47.0879 79.075 46.4481C79.075 45.9681 79.2355 45.5996 79.5555 45.3436C79.8435 45.1197 80.1794 45.0076 80.5633 45.0076C81.2033 45.0076 81.6838 45.1037 82.0038 45.2957C82.3236 45.4876 82.6438 45.68 82.9637 45.8719C83.2837 46.0637 83.7 46.16 84.2118 46.16C84.9795 46.1598 85.715 45.7912 86.4188 45.0555C87.1548 44.3515 87.9394 43.1359 88.7713 41.408C89.526 39.8406 90.3979 37.759 91.3895 35.1649L84.0672 20.2879C83.3633 18.88 82.8035 17.9676 82.3875 17.5516C82.0035 17.1036 81.5073 16.8797 80.8993 16.8797C80.8353 16.8797 80.8036 16.7836 80.8036 16.5916C80.8036 16.3997 80.8353 16.3035 80.8993 16.3035C81.4112 16.3035 81.9393 16.3194 82.4832 16.3514C83.0592 16.3834 83.6031 16.3992 84.1151 16.3992C85.1711 16.3992 86.0993 16.3834 86.8993 16.3514C87.6993 16.3194 88.4194 16.3035 89.0594 16.3035C89.1233 16.3037 89.1551 16.3998 89.1551 16.5916C89.1551 16.7835 89.1233 16.8796 89.0594 16.8797C88.0354 16.8797 87.2509 17.0075 86.7069 17.2635C86.1951 17.5195 86.1315 18.0159 86.5155 18.7518L92.8456 31.783L96.6913 20.7195C97.1712 19.2798 97.1552 18.288 96.6434 17.744C96.1634 17.168 95.0755 16.8798 93.3797 16.8797C93.3157 16.8797 93.2831 16.7836 93.2831 16.5916C93.2831 16.3997 93.3157 16.3035 93.3797 16.3035C94.1474 16.3035 94.8672 16.3194 95.5389 16.3514C96.2429 16.3834 97.1394 16.3992 98.2274 16.3992C98.9312 16.3992 99.4911 16.3834 99.9071 16.3514C100.355 16.3194 100.867 16.3035 101.443 16.3035Z" fill="black" style="fill:black;fill-opacity:1;"/>
<path d="M144.277 16.3035C144.373 16.3035 144.422 16.3997 144.422 16.5916C144.422 16.7836 144.373 16.8797 144.277 16.8797C143.477 16.8798 142.79 17.1522 142.214 17.6961C141.638 18.2401 141.094 19.2001 140.582 20.576L134.725 36.1756C133.573 39.2475 132.47 41.6637 131.414 43.4236C130.358 45.2156 129.253 46.4796 128.101 47.2156C126.981 47.9516 125.733 48.3201 124.357 48.3201C123.685 48.3201 123.11 48.1596 122.63 47.8397C122.15 47.5517 121.91 47.0879 121.91 46.4481C121.91 45.9681 122.07 45.5996 122.389 45.3436C122.677 45.1196 123.013 45.0077 123.397 45.0076C124.037 45.0076 124.518 45.1037 124.838 45.2957C125.158 45.4877 125.478 45.6799 125.798 45.8719C126.118 46.0638 126.534 46.16 127.046 46.16C127.814 46.1599 128.55 45.7915 129.254 45.0555C129.99 44.3515 130.773 43.1357 131.605 41.408C132.36 39.8407 133.232 37.759 134.223 35.1649L126.901 20.2879C126.197 18.8799 125.638 17.9676 125.222 17.5516C124.838 17.1037 124.341 16.8797 123.733 16.8797C123.67 16.8793 123.638 16.7832 123.638 16.5916C123.638 16.4001 123.67 16.3039 123.733 16.3035C124.245 16.3035 124.773 16.3194 125.317 16.3514C125.893 16.3834 126.438 16.3992 126.95 16.3992C128.006 16.3992 128.933 16.3834 129.733 16.3514C130.533 16.3194 131.253 16.3035 131.893 16.3035C131.957 16.3035 131.99 16.3997 131.99 16.5916C131.99 16.7836 131.957 16.8797 131.893 16.8797C130.87 16.8797 130.086 17.0076 129.542 17.2635C129.03 17.5195 128.965 18.0158 129.349 18.7518L135.681 31.784L139.525 20.7195C140.005 19.2796 139.989 18.288 139.477 17.744C138.997 17.168 137.91 16.8797 136.214 16.8797C136.15 16.8797 136.118 16.7836 136.118 16.5916C136.118 16.3997 136.15 16.3035 136.214 16.3035C136.982 16.3035 137.702 16.3194 138.374 16.3514C139.078 16.3834 139.974 16.3992 141.061 16.3992C141.765 16.3992 142.326 16.3834 142.742 16.3514C143.19 16.3194 143.702 16.3035 144.277 16.3035Z" fill="black" style="fill:black;fill-opacity:1;"/>
<path fill-rule="evenodd" clip-rule="evenodd" d="M39.326 15.6795C41.278 15.6795 42.9422 16.1599 44.3182 17.1199C45.726 18.0798 46.7981 19.3115 47.534 20.8152C48.27 22.3191 48.6375 23.9034 48.6375 25.5672C48.6375 27.6152 48.1739 29.3755 47.2459 30.8475C46.3179 32.3195 45.0857 33.4557 43.5497 34.2557C42.0137 35.0556 40.3176 35.4559 38.4618 35.4559C36.5739 35.4558 34.9263 34.9912 33.5184 34.0633C32.1104 33.1353 31.0218 31.9039 30.2538 30.368C29.4858 28.8001 29.1024 27.1198 29.1024 25.3279C29.1024 23.6639 29.4065 22.2236 30.0145 21.0076C30.6224 19.7919 31.438 18.8 32.4618 18.032C33.4858 17.232 34.5903 16.6397 35.7743 16.2557C36.9902 15.8717 38.1741 15.6795 39.326 15.6795ZM37.742 16.5916C36.046 16.5916 34.7177 17.2157 33.7577 18.4637C32.7978 19.7117 32.3182 21.5038 32.3182 23.8397C32.3182 25.7917 32.6382 27.5836 33.2782 29.2156C33.9181 30.8475 34.798 32.1434 35.9178 33.1033C37.0698 34.0633 38.3823 34.5438 39.8543 34.5438C41.5502 34.5437 42.8937 33.9513 43.8856 32.7674C44.8776 31.5514 45.3738 29.5998 45.3739 26.9119C45.3739 24.896 45.038 23.1198 44.3661 21.5838C43.7261 20.0158 42.8296 18.7994 41.6776 17.9354C40.5257 17.0396 39.2139 16.5916 37.742 16.5916Z" fill="black" style="fill:black;fill-opacity:1;"/>
<path fill-rule="evenodd" clip-rule="evenodd" d="M303.405 0.0320445C303.501 -0.031897 303.613 -0.000222817 303.741 0.127748C303.869 0.255657 303.917 0.351863 303.885 0.415834L298.317 30.5594C298.125 31.5193 298.108 32.2237 298.268 32.6717C298.46 33.1196 298.749 33.3435 299.133 33.3436C299.485 33.3436 299.932 33.1513 300.476 32.7674C301.02 32.3514 301.629 31.8076 302.301 31.1356C302.397 31.0076 302.509 31.0077 302.637 31.1356C302.797 31.2636 302.812 31.3914 302.684 31.5194C301.596 32.7033 300.637 33.6315 299.805 34.3035C298.973 34.9435 298.125 35.2635 297.261 35.2635C296.429 35.2634 295.916 34.9117 295.724 34.2078C295.532 33.5038 295.597 32.2874 295.917 30.5594L296.816 25.7889C296.188 27.1025 295.521 28.3257 294.812 29.4559C293.66 31.3117 292.445 32.784 291.165 33.8719C289.885 34.9279 288.541 35.4559 287.133 35.4559C286.333 35.4559 285.597 35.2478 284.925 34.8318C284.253 34.3838 283.756 33.6795 283.436 32.7195C283.148 31.7276 283.133 30.4157 283.389 28.784C283.709 26.992 284.285 25.3119 285.117 23.744C285.981 22.176 287.004 20.7832 288.188 19.5672C289.404 18.3512 290.701 17.4081 292.077 16.7361C293.453 16.0321 294.845 15.6795 296.253 15.6795C297.09 15.6795 297.871 15.9058 298.597 16.3533L300.717 5.11994C300.909 3.96811 300.765 3.24786 300.285 2.95978C299.805 2.67178 298.828 2.8798 297.356 3.5838C297.229 3.64744 297.133 3.5832 297.069 3.39142C297.005 3.19948 297.037 3.08748 297.165 3.05548L303.405 0.0320445ZM294.525 17.3592C292.509 17.3912 290.716 18.2233 289.148 19.8553C287.612 21.4553 286.573 23.7921 286.029 26.8641C285.677 28.9759 285.756 30.5601 286.268 31.616C286.812 32.6399 287.613 33.1512 288.669 33.1512C289.725 33.1512 290.749 32.7361 291.741 31.9041C292.733 31.0722 293.629 30.0319 294.429 28.784C295.261 27.504 295.949 26.2073 296.493 24.8953C297.037 23.5837 297.405 22.4479 297.597 21.4881C297.852 20.1443 297.677 19.1198 297.069 18.4158C296.493 17.7119 295.645 17.3593 294.525 17.3592Z" fill="black" style="fill:black;fill-opacity:1;"/>
<path fill-rule="evenodd" clip-rule="evenodd" d="M343.168 15.2C343.36 15.232 343.44 15.2796 343.408 15.3436L340.624 30.5594C340.304 32.4154 340.545 33.3436 341.345 33.3436C341.697 33.3435 342.144 33.1513 342.688 32.7674C343.264 32.3514 343.873 31.8075 344.513 31.1356C344.608 31.0398 344.721 31.0555 344.848 31.1834C344.976 31.3113 344.992 31.4234 344.896 31.5194C343.872 32.7033 342.928 33.6315 342.064 34.3035C341.2 34.9435 340.352 35.2635 339.52 35.2635C338.752 35.2635 338.256 34.9118 338.032 34.2078C337.808 33.5038 337.857 32.2874 338.177 30.5594L339.03 25.5721C338.346 26.9923 337.598 28.3034 336.784 29.5037C335.504 31.3596 334.177 32.8159 332.801 33.8719C331.425 34.9279 330.08 35.4558 328.768 35.4559C327.712 35.4559 326.912 35.0715 326.368 34.3035C325.824 33.5355 325.665 32.2555 325.889 30.4637C326.145 28.7358 326.688 27.008 327.52 25.2801C328.384 23.5201 329.424 21.9193 330.64 20.4793C331.888 19.0395 333.2 17.8872 334.576 17.0233C335.952 16.1273 337.265 15.6795 338.513 15.6795C339.12 15.6795 339.696 15.7915 340.24 16.0154C340.793 16.1997 341.27 16.5328 341.676 17.0115C341.709 16.984 341.743 16.9568 341.776 16.9276C342.32 16.4476 342.672 15.9036 342.832 15.2957C342.896 15.1998 343.008 15.1681 343.168 15.2ZM336.881 17.3592C335.761 17.3912 334.624 17.9035 333.473 18.8953C332.321 19.8553 331.296 21.152 330.4 22.784C329.504 24.3839 328.896 26.2237 328.576 28.3035C328.352 29.9035 328.385 31.1041 328.673 31.9041C328.993 32.7037 329.6 33.1032 330.496 33.1033C331.392 33.1033 332.32 32.7516 333.28 32.0477C334.24 31.3437 335.152 30.4313 336.016 29.3113C336.912 28.1594 337.68 26.9111 338.32 25.5672C338.992 24.1914 339.457 22.8478 339.713 21.536C339.969 20.352 339.856 19.3594 339.376 18.5594C338.896 17.7598 338.064 17.3593 336.881 17.3592Z" fill="black" style="fill:black;fill-opacity:1;"/>
<path fill-rule="evenodd" clip-rule="evenodd" d="M185.644 15.8719C187.404 15.872 188.748 16.3039 189.676 17.1678C190.636 17.9998 191.116 19.1518 191.116 20.6238C191.116 20.9755 191.084 21.2473 191.02 21.4393C190.956 21.6313 190.796 21.7274 190.54 21.7274H188.524L178.71 21.8143C178.565 22.5746 178.492 23.4101 178.492 24.3201C178.492 26.1439 178.78 27.7599 179.356 29.1678C179.964 30.5757 180.828 31.6962 181.948 32.5281C183.1 33.328 184.46 33.7274 186.028 33.7274C186.86 33.7273 187.708 33.5995 188.572 33.3436C189.436 33.0876 190.252 32.6873 191.02 32.1434C191.084 32.0799 191.164 32.1282 191.26 32.2879C191.388 32.4159 191.42 32.5279 191.356 32.6238C190.204 33.6158 189.052 34.336 187.9 34.784C186.748 35.2 185.564 35.408 184.348 35.408C182.364 35.408 180.7 34.9759 179.356 34.1121C178.012 33.2162 177.004 32.0639 176.332 30.6561C175.66 29.2481 175.324 27.7592 175.324 26.1912C175.324 24.2395 175.772 22.4956 176.668 20.9598C177.596 19.3918 178.828 18.1595 180.364 17.2635C181.932 16.3356 183.692 15.8719 185.644 15.8719ZM184.012 16.8319C182.22 16.8319 180.844 17.5036 179.884 18.8475C179.428 19.5067 179.085 20.2816 178.853 21.1717L187.784 20.9754C187.775 19.7705 187.478 18.8213 186.891 18.1277C186.219 17.2639 185.259 16.8319 184.012 16.8319Z" fill="black" style="fill:black;fill-opacity:1;"/>
<path fill-rule="evenodd" clip-rule="evenodd" d="M273.6 15.6795C274.784 15.6795 275.649 15.9193 276.193 16.3992C276.769 16.8472 276.993 17.4715 276.865 18.2713C276.705 19.0392 276.257 19.7754 275.521 20.4793C274.785 21.1832 273.841 21.8233 272.689 22.3992C271.537 22.9432 270.241 23.4237 268.801 23.8397C267.753 24.1492 266.67 24.3867 265.552 24.5545C265.232 26.2712 265.194 27.8088 265.441 29.1678C265.729 30.5757 266.289 31.6962 267.121 32.5281C267.953 33.3599 269.041 33.7751 270.385 33.7752C271.153 33.7752 271.953 33.6633 272.785 33.4393C273.617 33.2153 274.433 32.7992 275.233 32.1912C275.329 32.1276 275.425 32.1601 275.521 32.2879C275.649 32.4157 275.665 32.5279 275.569 32.6238C274.353 33.6158 273.168 34.336 272.016 34.784C270.865 35.1998 269.713 35.408 268.561 35.408C266.865 35.408 265.521 34.9593 264.529 34.0633C263.569 33.1673 262.929 31.9994 262.609 30.5594C262.321 29.1195 262.337 27.5838 262.657 25.952C262.849 24.768 263.265 23.5674 263.905 22.3514C264.577 21.1035 265.409 19.9839 266.401 18.992C267.393 18 268.497 17.1996 269.713 16.5916C270.929 15.9837 272.225 15.6796 273.6 15.6795ZM271.489 16.9754C270.401 16.9754 269.457 17.3114 268.657 17.9832C267.857 18.6552 267.201 19.5518 266.689 20.6717C266.239 21.6561 265.9 22.7271 265.673 23.8846C267.618 23.5334 269.285 23.0399 270.673 22.3992C272.369 21.5993 273.361 20.5599 273.649 19.2801C273.873 18.4161 273.729 17.8237 273.217 17.5037C272.705 17.1518 272.129 16.9754 271.489 16.9754Z" fill="black" style="fill:black;fill-opacity:1;"/>
<path d="M249.858 15.6795C251.138 15.6795 251.986 16.1758 252.402 17.1678C252.85 18.1598 252.866 19.7756 252.45 22.0154L250.914 30.5594C250.754 31.5194 250.738 32.2237 250.866 32.6717C251.026 33.1197 251.298 33.3436 251.682 33.3436C252.066 33.3435 252.514 33.1513 253.026 32.7674C253.57 32.3514 254.179 31.8075 254.85 31.1356C254.978 31.0078 255.106 31.0076 255.234 31.1356C255.362 31.2635 255.362 31.3914 255.234 31.5194C254.21 32.7033 253.266 33.6315 252.402 34.3035C251.538 34.9435 250.69 35.2635 249.858 35.2635C249.058 35.2635 248.546 34.9117 248.322 34.2078C248.13 33.5038 248.194 32.2874 248.514 30.5594L249.906 22.9276C250.226 21.1036 250.258 19.7593 250.002 18.8953C249.746 17.9996 249.17 17.5516 248.274 17.5516C247.314 17.5516 246.274 18.2075 245.154 19.5194C244.066 20.7993 243.026 22.7034 242.034 25.2313C241.074 27.7593 240.258 30.8479 239.586 34.4959L239.569 34.5828C239.459 35.0047 238.968 35.2156 238.098 35.2156C237.651 35.2156 237.346 35.1839 237.186 35.1199C237.058 35.0879 236.994 35.0236 236.994 34.9276C236.994 34.7994 237.074 34.3515 237.234 33.5838C237.426 32.784 237.586 32.0159 237.714 31.2801L239.298 22.9276C239.554 21.1036 239.554 19.7593 239.298 18.8953C239.074 17.9996 238.546 17.5516 237.714 17.5516C236.754 17.5518 235.714 18.2078 234.595 19.5194C233.507 20.8313 232.466 22.7679 231.474 25.3279C230.514 27.8559 229.714 30.912 229.074 34.4959L229.046 34.5828C228.881 35.0047 228.378 35.2156 227.538 35.2156C227.058 35.2156 226.754 35.1839 226.626 35.1199C226.498 35.0879 226.434 35.0235 226.434 34.9276C226.434 34.7994 226.514 34.3833 226.674 33.6795C226.834 32.9755 226.978 32.2553 227.106 31.5194L229.122 20.576C229.442 18.6882 229.17 17.7442 228.306 17.744C227.954 17.744 227.49 17.9361 226.914 18.3201C226.338 18.7041 225.698 19.2481 224.994 19.952C224.898 20.0797 224.77 20.0797 224.61 19.952C224.482 19.792 224.482 19.6632 224.61 19.5672C225.698 18.3195 226.69 17.392 227.586 16.784C228.514 16.176 229.394 15.8719 230.226 15.8719C230.994 15.872 231.474 16.2238 231.666 16.9276C231.89 17.5995 231.858 18.7835 231.57 20.4793L230.641 25.6932C230.771 25.3239 230.905 24.9618 231.042 24.6072C232.162 21.7916 233.426 19.6 234.834 18.032C236.274 16.4642 237.762 15.6797 239.298 15.6795C240.514 15.6795 241.346 16.1758 241.794 17.1678C242.274 18.1277 242.291 19.7436 241.843 22.0154L241.097 26.1356C241.274 25.6119 241.459 25.1023 241.65 24.6072C242.77 21.7595 244.034 19.568 245.442 18.032C246.85 16.464 248.322 15.6795 249.858 15.6795Z" fill="black" style="fill:black;fill-opacity:1;"/>
<path d="M315.085 15.8719C315.885 15.8719 316.397 16.2236 316.621 16.9276C316.845 17.5995 316.781 18.7835 316.429 20.4793L314.509 30.5594C314.317 31.5194 314.301 32.2237 314.461 32.6717C314.621 33.1197 314.893 33.3436 315.277 33.3436C315.629 33.3435 316.093 33.1672 316.669 32.8152C317.245 32.4313 317.869 31.9032 318.541 31.2313C318.669 31.1036 318.797 31.1037 318.925 31.2313C319.053 31.3593 319.053 31.488 318.925 31.616C317.869 32.7998 316.893 33.7114 315.997 34.3514C315.133 34.9594 314.285 35.2635 313.453 35.2635C312.685 35.2635 312.173 34.9277 311.917 34.2557C311.661 33.5837 311.709 32.3514 312.061 30.5594L314.029 20.576C314.381 18.688 314.109 17.744 313.213 17.744C312.861 17.744 312.381 17.9362 311.773 18.3201C311.197 18.7041 310.573 19.248 309.901 19.952C309.805 20.0799 309.676 20.08 309.516 19.952C309.388 19.792 309.389 19.6632 309.516 19.5672C310.604 18.3193 311.597 17.392 312.493 16.784C313.389 16.176 314.253 15.8719 315.085 15.8719Z" fill="black" style="fill:black;fill-opacity:1;"/>
<path fill-rule="evenodd" clip-rule="evenodd" d="M160.062 15.8719C161.278 15.8719 162.287 16.3038 163.087 17.1678C163.887 17.9997 164.287 19.3276 164.287 21.1512V29.6473C164.287 30.7672 164.431 31.5835 164.719 32.0955C165.007 32.6074 165.47 32.864 166.11 32.8641C166.686 32.8641 167.487 32.656 168.511 32.2401C168.671 32.1761 168.783 32.2396 168.847 32.4315C168.91 32.5913 168.863 32.7034 168.703 32.7674L163.759 35.1199C163.631 35.1839 163.503 35.2156 163.375 35.2156C162.959 35.2156 162.559 34.8797 162.175 34.2078C161.888 33.6827 161.708 32.9883 161.636 32.1248L158.671 33.7274C157.711 34.2074 156.91 34.5758 156.27 34.8318C155.63 35.0558 154.99 35.1678 154.35 35.1678C153.326 35.1678 152.559 34.8954 152.047 34.3514C151.535 33.7754 151.278 33.1196 151.278 32.3836C151.278 31.4876 151.631 30.7833 152.335 30.2713C153.039 29.7274 154.191 29.1834 155.791 28.6395L161.598 26.5555V22.5916C161.598 21.0877 161.455 19.9197 161.167 19.0877C160.911 18.2557 160.542 17.6792 160.062 17.3592C159.614 17.0394 159.102 16.8797 158.526 16.8797C157.726 16.8798 157.07 17.0878 156.558 17.5037C156.046 17.8877 155.662 18.384 155.406 18.992C155.15 19.5997 154.975 20.2075 154.879 20.8152C154.847 21.2632 154.702 21.6793 154.446 22.0633C154.222 22.4473 153.774 22.6395 153.102 22.6395C152.59 22.6394 152.19 22.5117 151.902 22.2557C151.614 21.9998 151.471 21.6478 151.471 21.2C151.471 20.624 151.759 20.0316 152.335 19.4236C152.911 18.7837 153.631 18.2081 154.495 17.6961C155.391 17.1522 156.318 16.7192 157.278 16.3992C158.27 16.0473 159.198 15.8719 160.062 15.8719ZM156.654 29.0233C155.918 29.3112 155.39 29.6313 155.07 29.9832C154.782 30.3352 154.639 30.7839 154.639 31.3279C154.639 31.9998 154.831 32.528 155.215 32.9119C155.599 33.2638 156.095 33.4393 156.703 33.4393C157.055 33.4392 157.391 33.4075 157.711 33.3436C158.031 33.2476 158.351 33.1197 158.671 32.9598L161.603 31.4754C161.601 31.3799 161.598 31.2824 161.598 31.1834V27.1483L156.654 29.0233Z" fill="black" style="fill:black;fill-opacity:1;"/>
<path d="M75.8309 16.3035C75.8948 16.3037 75.9266 16.3998 75.9266 16.5916C75.9266 16.7835 75.8948 16.8796 75.8309 16.8797C75.0309 16.8797 74.3424 17.1353 73.7664 17.6473C73.2224 18.1273 72.6786 19.0396 72.1346 20.3836L66.1346 34.784C66.1024 34.9118 65.926 34.9754 65.6063 34.9754C65.3188 34.9753 65.1431 34.9117 65.0789 34.784L58.3592 20.2879C57.6872 18.8479 57.1266 17.9197 56.6786 17.5037C56.2626 17.0878 55.7504 16.8797 55.1424 16.8797C55.0467 16.8795 54.9989 16.7834 54.9989 16.5916C54.9989 16.3999 55.0467 16.3038 55.1424 16.3035C55.6224 16.3035 56.1346 16.3194 56.6786 16.3514C57.2546 16.3834 57.8469 16.3992 58.4549 16.3992C59.5429 16.3992 60.487 16.3834 61.287 16.3514C62.0869 16.3194 62.823 16.3035 63.495 16.3035C63.5908 16.3037 63.6385 16.3998 63.6385 16.5916C63.6385 16.7835 63.5908 16.8796 63.495 16.8797C62.503 16.8797 61.7184 17.0075 61.1424 17.2635C60.5666 17.4875 60.4546 17.9839 60.8065 18.7518L66.6405 31.1473L71.1747 20.1434C71.6546 18.9915 71.6071 18.1592 71.0311 17.6473C70.4871 17.1353 69.3826 16.8797 67.7186 16.8797C67.6547 16.8795 67.6229 16.7834 67.6229 16.5916C67.6229 16.3998 67.6547 16.3037 67.7186 16.3035C68.4866 16.3035 69.2068 16.3194 69.8788 16.3514C70.5828 16.3834 71.4792 16.3992 72.5672 16.3992C73.239 16.3992 73.7832 16.3834 74.1991 16.3514C74.647 16.3194 75.191 16.3035 75.8309 16.3035Z" fill="black" style="fill:black;fill-opacity:1;"/>
<path d="M218.678 16.3035C218.742 16.3035 218.773 16.3997 218.773 16.5916C218.773 16.7836 218.742 16.8797 218.678 16.8797C217.878 16.8797 217.19 17.1356 216.614 17.6473C216.07 18.1273 215.525 19.0396 214.981 20.3836L208.981 34.784C208.949 34.9117 208.773 34.9754 208.454 34.9754C208.166 34.9754 207.99 34.9118 207.926 34.784L201.206 20.2879C200.534 18.8479 199.973 17.9197 199.525 17.5037C199.109 17.0879 198.598 16.8798 197.99 16.8797C197.894 16.8797 197.846 16.7836 197.846 16.5916C197.846 16.3997 197.894 16.3035 197.99 16.3035C198.47 16.3035 198.982 16.3194 199.525 16.3514C200.101 16.3834 200.694 16.3992 201.302 16.3992C202.39 16.3992 203.334 16.3834 204.134 16.3514C204.934 16.3194 205.67 16.3035 206.342 16.3035C206.438 16.3035 206.485 16.3997 206.485 16.5916C206.485 16.7836 206.438 16.8797 206.342 16.8797C205.35 16.8797 204.566 17.0076 203.99 17.2635C203.414 17.4875 203.301 17.9838 203.653 18.7518L209.487 31.1483L214.021 20.1434C214.501 18.9914 214.454 18.1593 213.878 17.6473C213.334 17.1354 212.229 16.8797 210.565 16.8797C210.502 16.8793 210.47 16.7832 210.47 16.5916C210.47 16.4 210.502 16.3039 210.565 16.3035C211.333 16.3035 212.053 16.3194 212.725 16.3514C213.429 16.3834 214.326 16.3992 215.414 16.3992C216.086 16.3992 216.63 16.3834 217.046 16.3514C217.494 16.3194 218.038 16.3035 218.678 16.3035Z" fill="black" style="fill:black;fill-opacity:1;"/>
<path d="M6.36801 0.0320445C6.4639 0.0321638 6.56022 0.0797199 6.6561 0.175599C6.75192 0.23957 6.79966 0.319925 6.79966 0.415834V25.3865L13.2313 20.1912C14.4792 19.1993 14.9755 18.3998 14.7196 17.7918C14.4956 17.1839 13.5998 16.8798 12.0321 16.8797C11.9361 16.8797 11.8875 16.7836 11.8875 16.5916C11.8876 16.3997 11.9361 16.3035 12.0321 16.3035C12.7999 16.3035 13.5679 16.3194 14.3358 16.3514C15.1358 16.3834 16.1918 16.3992 17.5038 16.3992C18.7197 16.3992 19.6797 16.3834 20.3836 16.3514C21.1196 16.3194 21.8081 16.3035 22.4481 16.3035C22.5438 16.3038 22.5916 16.3999 22.5916 16.5916C22.5916 16.7833 22.5438 16.8794 22.4481 16.8797C21.7122 16.8797 20.8958 17.0075 19.9999 17.2635C19.1039 17.4875 18.1598 17.856 17.1678 18.368C16.2078 18.88 15.2153 19.5358 14.1913 20.3358L11.3934 22.5311L17.5038 30.9442C18.3676 32.1919 19.2634 33.056 20.1913 33.5359C21.1511 34.0159 22.0954 34.2556 23.0233 34.2557C23.1193 34.2557 23.1678 34.3518 23.1678 34.5438C23.1678 34.7357 23.1193 34.8318 23.0233 34.8318C22.4474 34.8318 21.7914 34.816 21.0555 34.784C20.3197 34.752 19.5199 34.7362 18.6561 34.7361C17.4402 34.7361 16.3999 34.752 15.536 34.784C14.672 34.816 13.8716 34.8318 13.1356 34.8318C13.0716 34.8318 13.0399 34.7356 13.0399 34.5438C13.0399 34.3518 13.0716 34.2557 13.1356 34.2557C14.2873 34.2557 15.0235 34.1119 15.3436 33.824C15.6636 33.504 15.5834 32.9919 15.1034 32.2879L9.20298 24.2498L6.79966 26.1365V30.9442C6.7997 32.2879 6.99187 33.1837 7.37583 33.6317C7.75986 34.0476 8.57614 34.2557 9.82407 34.2557C9.91979 34.256 9.96762 34.352 9.96762 34.5438C9.96761 34.7354 9.91978 34.8316 9.82407 34.8318C9.24807 34.8318 8.59132 34.816 7.85532 34.784C7.11948 34.752 6.31968 34.7361 5.45591 34.7361C4.62391 34.7361 3.82351 34.752 3.05551 34.784C2.28762 34.816 1.63169 34.8318 1.08774 34.8318C0.991757 34.8318 0.943225 34.7357 0.94321 34.5438C0.94321 34.3518 0.991741 34.2557 1.08774 34.2557C2.33569 34.2557 3.15199 34.0476 3.53598 33.6317C3.91984 33.1836 4.11113 32.2877 4.11118 30.9442V6.12775C4.11118 5.00775 3.99924 4.19151 3.77524 3.67951C3.55127 3.13581 3.15173 2.86419 2.57602 2.86408C2.09605 2.86408 1.35992 3.08801 0.368015 3.53595C0.240034 3.59994 0.128067 3.5355 0.0320771 3.34357C-0.0319229 3.15157 -0.000219762 3.03963 0.12778 3.00763L6.12778 0.0798961C6.22376 0.047906 6.30402 0.0320445 6.36801 0.0320445Z" fill="black" style="fill:black;fill-opacity:1;"/>
<path d="M113.759 0.0320445C113.823 0.0320445 113.903 0.0796005 113.999 0.175599C114.127 0.239588 114.19 0.31987 114.19 0.415834V30.9442C114.19 32.2879 114.367 33.1837 114.719 33.6317C115.071 34.0477 115.887 34.2557 117.167 34.2557C117.263 34.2558 117.31 34.3519 117.31 34.5438C117.31 34.7356 117.263 34.8317 117.167 34.8318C116.623 34.8318 115.967 34.816 115.199 34.784C114.431 34.752 113.615 34.7361 112.751 34.7361C111.919 34.7361 111.103 34.752 110.303 34.784C109.535 34.816 108.879 34.8318 108.335 34.8318C108.239 34.8318 108.19 34.7357 108.19 34.5438C108.19 34.3518 108.239 34.2557 108.335 34.2557C109.583 34.2557 110.399 34.0476 110.783 33.6317C111.167 33.1836 111.358 32.2877 111.358 30.9442V6.12775C111.358 5.00775 111.246 4.19151 111.022 3.67951C110.798 3.13582 110.399 2.86421 109.823 2.86408C109.343 2.86408 108.607 3.08803 107.615 3.53595C107.519 3.59994 107.423 3.53552 107.327 3.34357C107.231 3.15157 107.247 3.03963 107.375 3.00763L113.518 0.0798961C113.582 0.0478978 113.663 0.0320458 113.759 0.0320445Z" fill="black" style="fill:black;fill-opacity:1;"/>
<path d="M316.477 6.1756C317.149 6.17568 317.645 6.352 317.965 6.70392C318.317 7.05586 318.493 7.53552 318.493 8.14337C318.493 9.51921 317.821 10.2077 316.477 10.2078C315.837 10.2078 315.325 10.0314 314.941 9.67951C314.589 9.32751 314.413 8.81537 314.413 8.14337C314.413 7.53551 314.589 7.05586 314.941 6.70392C315.325 6.35196 315.837 6.1756 316.477 6.1756Z" fill="black" style="fill:black;fill-opacity:1;"/>
</svg>
